<?xml version="1.0" encoding="UTF-8" standalone="no"?>
<!DOCTYPE svg PUBLIC "-//W3C//DTD SVG 1.1//EN"
 "http://www.w3.org/Graphics/SVG/1.1/DTD/svg11.dtd">
<!-- Generated by graphviz version 3.0.0 (20220226.1711)
 -->
<!-- Title: snakemake_dag Pages: 1 -->
<svg width="1093pt" height="476pt"
 viewBox="0.00 0.00 1093.03 476.00" xmlns="http://www.w3.org/2000/svg" xmlns:xlink="http://www.w3.org/1999/xlink">
<g id="graph0" class="graph" transform="scale(1 1) rotate(0) translate(4 472)">
<title>snakemake_dag</title>
<polygon fill="white" stroke="transparent" points="-4,4 -4,-472 1089.03,-472 1089.03,4 -4,4"/>
<!-- 0 -->
<g id="node1" class="node">
<title>0</title>
<path fill="none" stroke="#56d86b" stroke-width="2" d="M551.57,-36C551.57,-36 521.57,-36 521.57,-36 515.57,-36 509.57,-30 509.57,-24 509.57,-24 509.57,-12 509.57,-12 509.57,-6 515.57,0 521.57,0 521.57,0 551.57,0 551.57,0 557.57,0 563.57,-6 563.57,-12 563.57,-12 563.57,-24 563.57,-24 563.57,-30 557.57,-36 551.57,-36"/>
<text text-anchor="middle" x="536.57" y="-15.5" font-family="sans" font-size="10.00">all</text>
</g>
<!-- 1 -->
<g id="node2" class="node">
<title>1</title>
<path fill="none" stroke="#d85656" stroke-width="2" d="M146.07,-180C146.07,-180 47.07,-180 47.07,-180 41.07,-180 35.07,-174 35.07,-168 35.07,-168 35.07,-156 35.07,-156 35.07,-150 41.07,-144 47.07,-144 47.07,-144 146.07,-144 146.07,-144 152.07,-144 158.07,-150 158.07,-156 158.07,-156 158.07,-168 158.07,-168 158.07,-174 152.07,-180 146.07,-180"/>
<text text-anchor="middle" x="96.57" y="-159.5" font-family="sans" font-size="10.00">model_summaraner_bpe</text>
</g>
<!-- 1&#45;&gt;0 -->
<g id="edge1" class="edge">
<title>1&#45;&gt;0</title>
<path fill="none" stroke="grey" stroke-width="2" d="M100.18,-143.75C105.47,-123.1 117.44,-89.16 141.57,-72 198.62,-31.45 412.19,-21.89 499.27,-19.66"/>
<polygon fill="grey" stroke="grey" stroke-width="2" points="499.57,-23.16 509.48,-19.42 499.4,-16.16 499.57,-23.16"/>
</g>
<!-- 12 -->
<g id="node13" class="node">
<title>12</title>
<path fill="none" stroke="#56d8a9" stroke-width="2" d="M270.07,-108C270.07,-108 163.07,-108 163.07,-108 157.07,-108 151.07,-102 151.07,-96 151.07,-96 151.07,-84 151.07,-84 151.07,-78 157.07,-72 163.07,-72 163.07,-72 270.07,-72 270.07,-72 276.07,-72 282.07,-78 282.07,-84 282.07,-84 282.07,-96 282.07,-96 282.07,-102 276.07,-108 270.07,-108"/>
<text text-anchor="middle" x="216.57" y="-87.5" font-family="sans" font-size="10.00">model_summaraner_result</text>
</g>
<!-- 1&#45;&gt;12 -->
<g id="edge26" class="edge">
<title>1&#45;&gt;12</title>
<path fill="none" stroke="grey" stroke-width="2" d="M125.93,-143.88C141.62,-134.72 161.13,-123.34 178.03,-113.48"/>
<polygon fill="grey" stroke="grey" stroke-width="2" points="180.23,-116.25 187.11,-108.19 176.7,-110.21 180.23,-116.25"/>
</g>
<!-- 2 -->
<g id="node3" class="node">
<title>2</title>
<path fill="none" stroke="#567bd8" stroke-width="2" d="M798.57,-324C798.57,-324 736.57,-324 736.57,-324 730.57,-324 724.57,-318 724.57,-312 724.57,-312 724.57,-300 724.57,-300 724.57,-294 730.57,-288 736.57,-288 736.57,-288 798.57,-288 798.57,-288 804.57,-288 810.57,-294 810.57,-300 810.57,-300 810.57,-312 810.57,-312 810.57,-318 804.57,-324 798.57,-324"/>
<text text-anchor="middle" x="767.57" y="-303.5" font-family="sans" font-size="10.00">prepare_dataset</text>
</g>
<!-- 2&#45;&gt;0 -->
<g id="edge6" class="edge">
<title>2&#45;&gt;0</title>
<path fill="none" stroke="grey" stroke-width="2" d="M810.71,-304.23C887.91,-301.83 1044.79,-292.03 1078.57,-252 1088.89,-239.77 1084.8,-230.74 1078.57,-216 1042.25,-129.97 1010.17,-111.54 925.57,-72 863.47,-42.97 658.8,-26.84 573.95,-21.26"/>
<polygon fill="grey" stroke="grey" stroke-width="2" points="573.94,-17.75 563.74,-20.6 573.49,-24.74 573.94,-17.75"/>
</g>
<!-- 2&#45;&gt;1 -->
<g id="edge15" class="edge">
<title>2&#45;&gt;1</title>
<path fill="none" stroke="grey" stroke-width="2" d="M724.36,-300.66C655.84,-293.33 518.26,-276.85 403.57,-252 316.7,-233.18 218.35,-203.06 156.89,-183.16"/>
<polygon fill="grey" stroke="grey" stroke-width="2" points="157.95,-179.82 147.36,-180.06 155.78,-186.48 157.95,-179.82"/>
</g>
<!-- 6 -->
<g id="node7" class="node">
<title>6</title>
<path fill="none" stroke="#56d88a" stroke-width="2" d="M472.57,-252C472.57,-252 424.57,-252 424.57,-252 418.57,-252 412.57,-246 412.57,-240 412.57,-240 412.57,-228 412.57,-228 412.57,-222 418.57,-216 424.57,-216 424.57,-216 472.57,-216 472.57,-216 478.57,-216 484.57,-222 484.57,-228 484.57,-228 484.57,-240 484.57,-240 484.57,-246 478.57,-252 472.57,-252"/>
<text text-anchor="middle" x="448.57" y="-231.5" font-family="sans" font-size="10.00">split_dataset</text>
</g>
<!-- 2&#45;&gt;6 -->
<g id="edge19" class="edge">
<title>2&#45;&gt;6</title>
<path fill="none" stroke="grey" stroke-width="2" d="M724.55,-295.56C664.62,-282.41 556.46,-258.67 494.84,-245.15"/>
<polygon fill="grey" stroke="grey" stroke-width="2" points="495.52,-241.72 485,-242.99 494.02,-248.56 495.52,-241.72"/>
</g>
<!-- 9 -->
<g id="node10" class="node">
<title>9</title>
<path fill="none" stroke="#d87556" stroke-width="2" d="M606.07,-108C606.07,-108 541.07,-108 541.07,-108 535.07,-108 529.07,-102 529.07,-96 529.07,-96 529.07,-84 529.07,-84 529.07,-78 535.07,-72 541.07,-72 541.07,-72 606.07,-72 606.07,-72 612.07,-72 618.07,-78 618.07,-84 618.07,-84 618.07,-96 618.07,-96 618.07,-102 612.07,-108 606.07,-108"/>
<text text-anchor="middle" x="573.57" y="-87.5" font-family="sans" font-size="10.00">model_text_rank</text>
</g>
<!-- 2&#45;&gt;9 -->
<g id="edge22" class="edge">
<title>2&#45;&gt;9</title>
<path fill="none" stroke="grey" stroke-width="2" d="M761.21,-287.81C747.27,-250.88 713.52,-165.54 691.57,-144 681.69,-134.3 653.93,-121.64 627.82,-111.13"/>
<polygon fill="grey" stroke="grey" stroke-width="2" points="628.9,-107.79 618.31,-107.36 626.32,-114.3 628.9,-107.79"/>
</g>
<!-- 10 -->
<g id="node11" class="node">
<title>10</title>
<path fill="none" stroke="#56d8d0" stroke-width="2" d="M719.07,-108C719.07,-108 648.07,-108 648.07,-108 642.07,-108 636.07,-102 636.07,-96 636.07,-96 636.07,-84 636.07,-84 636.07,-78 642.07,-72 648.07,-72 648.07,-72 719.07,-72 719.07,-72 725.07,-72 731.07,-78 731.07,-84 731.07,-84 731.07,-96 731.07,-96 731.07,-102 725.07,-108 719.07,-108"/>
<text text-anchor="middle" x="683.57" y="-87.5" font-family="sans" font-size="10.00">model_summa_lib</text>
</g>
<!-- 2&#45;&gt;10 -->
<g id="edge23" class="edge">
<title>2&#45;&gt;10</title>
<path fill="none" stroke="grey" stroke-width="2" d="M765.26,-287.76C760.71,-257.4 748.83,-193 724.57,-144 719.77,-134.3 713.05,-124.66 706.43,-116.31"/>
<polygon fill="grey" stroke="grey" stroke-width="2" points="709,-113.91 699.93,-108.43 703.6,-118.37 709,-113.91"/>
</g>
<!-- 11 -->
<g id="node12" class="node">
<title>11</title>
<path fill="none" stroke="#ced856" stroke-width="2" d="M808.07,-108C808.07,-108 761.07,-108 761.07,-108 755.07,-108 749.07,-102 749.07,-96 749.07,-96 749.07,-84 749.07,-84 749.07,-78 755.07,-72 761.07,-72 761.07,-72 808.07,-72 808.07,-72 814.07,-72 820.07,-78 820.07,-84 820.07,-84 820.07,-96 820.07,-96 820.07,-102 814.07,-108 808.07,-108"/>
<text text-anchor="middle" x="784.57" y="-87.5" font-family="sans" font-size="10.00">model_lead3</text>
</g>
<!-- 2&#45;&gt;11 -->
<g id="edge24" class="edge">
<title>2&#45;&gt;11</title>
<path fill="none" stroke="grey" stroke-width="2" d="M768.94,-287.85C771.88,-250.83 778.84,-163.18 782.4,-118.39"/>
<polygon fill="grey" stroke="grey" stroke-width="2" points="785.9,-118.48 783.2,-108.23 778.92,-117.92 785.9,-118.48"/>
</g>
<!-- 13 -->
<g id="node14" class="node">
<title>13</title>
<path fill="none" stroke="#d89c56" stroke-width="2" d="M868.07,-252C868.07,-252 827.07,-252 827.07,-252 821.07,-252 815.07,-246 815.07,-240 815.07,-240 815.07,-228 815.07,-228 815.07,-222 821.07,-216 827.07,-216 827.07,-216 868.07,-216 868.07,-216 874.07,-216 880.07,-222 880.07,-228 880.07,-228 880.07,-240 880.07,-240 880.07,-246 874.07,-252 868.07,-252"/>
<text text-anchor="middle" x="847.57" y="-231.5" font-family="sans" font-size="10.00">model_bart</text>
</g>
<!-- 2&#45;&gt;13 -->
<g id="edge27" class="edge">
<title>2&#45;&gt;13</title>
<path fill="none" stroke="grey" stroke-width="2" d="M787.35,-287.7C797.33,-278.97 809.58,-268.24 820.43,-258.75"/>
<polygon fill="grey" stroke="grey" stroke-width="2" points="822.8,-261.32 828.03,-252.1 818.2,-256.06 822.8,-261.32"/>
</g>
<!-- 14 -->
<g id="node15" class="node">
<title>14</title>
<path fill="none" stroke="#68d856" stroke-width="2" d="M985.07,-252C985.07,-252 910.07,-252 910.07,-252 904.07,-252 898.07,-246 898.07,-240 898.07,-240 898.07,-228 898.07,-228 898.07,-222 904.07,-216 910.07,-216 910.07,-216 985.07,-216 985.07,-216 991.07,-216 997.07,-222 997.07,-228 997.07,-228 997.07,-240 997.07,-240 997.07,-246 991.07,-252 985.07,-252"/>
<text text-anchor="middle" x="947.57" y="-231.5" font-family="sans" font-size="10.00">model_trained_bart</text>
</g>
<!-- 2&#45;&gt;14 -->
<g id="edge28" class="edge">
<title>2&#45;&gt;14</title>
<path fill="none" stroke="grey" stroke-width="2" d="M810.69,-288.23C835.7,-278.51 867.41,-266.17 894.01,-255.83"/>
<polygon fill="grey" stroke="grey" stroke-width="2" points="895.51,-259 903.56,-252.12 892.97,-252.48 895.51,-259"/>
</g>
<!-- 15 -->
<g id="node16" class="node">
<title>15</title>
<path fill="none" stroke="#88d856" stroke-width="2" d="M1057.57,-252C1057.57,-252 1027.57,-252 1027.57,-252 1021.57,-252 1015.57,-246 1015.57,-240 1015.57,-240 1015.57,-228 1015.57,-228 1015.57,-222 1021.57,-216 1027.57,-216 1027.57,-216 1057.57,-216 1057.57,-216 1063.57,-216 1069.57,-222 1069.57,-228 1069.57,-228 1069.57,-240 1069.57,-240 1069.57,-246 1063.57,-252 1057.57,-252"/>
<text text-anchor="middle" x="1042.57" y="-231.5" font-family="sans" font-size="10.00">eda</text>
</g>
<!-- 2&#45;&gt;15 -->
<g id="edge29" class="edge">
<title>2&#45;&gt;15</title>
<path fill="none" stroke="grey" stroke-width="2" d="M810.88,-298.2C859.16,-289.96 939.18,-274.36 1005.57,-252 1005.67,-251.97 1005.77,-251.93 1005.88,-251.9"/>
<polygon fill="grey" stroke="grey" stroke-width="2" points="1007.26,-255.12 1015.36,-248.29 1004.77,-248.58 1007.26,-255.12"/>
</g>
<!-- 3 -->
<g id="node4" class="node">
<title>3</title>
<path fill="none" stroke="#d8bc56" stroke-width="2" d="M411.07,-396C411.07,-396 344.07,-396 344.07,-396 338.07,-396 332.07,-390 332.07,-384 332.07,-384 332.07,-372 332.07,-372 332.07,-366 338.07,-360 344.07,-360 344.07,-360 411.07,-360 411.07,-360 417.07,-360 423.07,-366 423.07,-372 423.07,-372 423.07,-384 423.07,-384 423.07,-390 417.07,-396 411.07,-396"/>
<text text-anchor="middle" x="377.57" y="-375.5" font-family="sans" font-size="10.00">scrapper_entities</text>
</g>
<!-- 3&#45;&gt;0 -->
<g id="edge5" class="edge">
<title>3&#45;&gt;0</title>
<path fill="none" stroke="grey" stroke-width="2" d="M331.71,-369.42C232.45,-351.72 6.57,-303.88 6.57,-235 6.57,-235 6.57,-235 6.57,-161 6.57,-144.47 -38.77,-137.55 109.57,-72 179.24,-41.22 408.87,-25.85 499.41,-20.87"/>
<polygon fill="grey" stroke="grey" stroke-width="2" points="499.69,-24.36 509.49,-20.32 499.31,-17.37 499.69,-24.36"/>
</g>
<!-- 3&#45;&gt;2 -->
<g id="edge16" class="edge">
<title>3&#45;&gt;2</title>
<path fill="none" stroke="grey" stroke-width="2" d="M423.08,-368.83C495.67,-355.8 637.34,-330.37 714.46,-316.53"/>
<polygon fill="grey" stroke="grey" stroke-width="2" points="715.22,-319.95 724.45,-314.74 713.99,-313.06 715.22,-319.95"/>
</g>
<!-- 4 -->
<g id="node5" class="node">
<title>4</title>
<path fill="none" stroke="#afd856" stroke-width="2" stroke-dasharray="5,2" d="M412.07,-468C412.07,-468 343.07,-468 343.07,-468 337.07,-468 331.07,-462 331.07,-456 331.07,-456 331.07,-444 331.07,-444 331.07,-438 337.07,-432 343.07,-432 343.07,-432 412.07,-432 412.07,-432 418.07,-432 424.07,-438 424.07,-444 424.07,-444 424.07,-456 424.07,-456 424.07,-462 418.07,-468 412.07,-468"/>
<text text-anchor="middle" x="377.57" y="-447.5" font-family="sans" font-size="10.00">scrapper_list_urls</text>
</g>
<!-- 4&#45;&gt;3 -->
<g id="edge17" class="edge">
<title>4&#45;&gt;3</title>
<path fill="none" stroke="grey" stroke-width="2" d="M377.57,-431.7C377.57,-423.98 377.57,-414.71 377.57,-406.11"/>
<polygon fill="grey" stroke="grey" stroke-width="2" points="381.07,-406.1 377.57,-396.1 374.07,-406.1 381.07,-406.1"/>
</g>
<!-- 5 -->
<g id="node6" class="node">
<title>5</title>
<path fill="none" stroke="#569ad8" stroke-width="2" d="M508.57,-180C508.57,-180 388.57,-180 388.57,-180 382.57,-180 376.57,-174 376.57,-168 376.57,-168 376.57,-156 376.57,-156 376.57,-150 382.57,-144 388.57,-144 388.57,-144 508.57,-144 508.57,-144 514.57,-144 520.57,-150 520.57,-156 520.57,-156 520.57,-168 520.57,-168 520.57,-174 514.57,-180 508.57,-180"/>
<text text-anchor="middle" x="448.57" y="-165" font-family="sans" font-size="10.00">model_summaraner_add_info</text>
<text text-anchor="middle" x="448.57" y="-154" font-family="sans" font-size="10.00">type: train</text>
</g>
<!-- 5&#45;&gt;0 -->
<g id="edge2" class="edge">
<title>5&#45;&gt;0</title>
<path fill="none" stroke="grey" stroke-width="2" d="M459.19,-143.87C474.45,-119.24 502.71,-73.64 520.53,-44.88"/>
<polygon fill="grey" stroke="grey" stroke-width="2" points="523.63,-46.53 525.92,-36.19 517.68,-42.85 523.63,-46.53"/>
</g>
<!-- 6&#45;&gt;0 -->
<g id="edge7" class="edge">
<title>6&#45;&gt;0</title>
<path fill="none" stroke="grey" stroke-width="2" d="M412.4,-219.04C395.56,-210.49 377.17,-197.74 367.57,-180 359.96,-165.93 360.37,-158.29 367.57,-144 395.18,-89.25 459.35,-52.52 500.2,-33.74"/>
<polygon fill="grey" stroke="grey" stroke-width="2" points="501.84,-36.84 509.54,-29.57 498.98,-30.45 501.84,-36.84"/>
</g>
<!-- 6&#45;&gt;5 -->
<g id="edge18" class="edge">
<title>6&#45;&gt;5</title>
<path fill="none" stroke="grey" stroke-width="2" d="M448.57,-215.7C448.57,-207.98 448.57,-198.71 448.57,-190.11"/>
<polygon fill="grey" stroke="grey" stroke-width="2" points="452.07,-190.1 448.57,-180.1 445.07,-190.1 452.07,-190.1"/>
</g>
<!-- 7 -->
<g id="node8" class="node">
<title>7</title>
<path fill="none" stroke="#569ad8" stroke-width="2" d="M670.57,-180C670.57,-180 550.57,-180 550.57,-180 544.57,-180 538.57,-174 538.57,-168 538.57,-168 538.57,-156 538.57,-156 538.57,-150 544.57,-144 550.57,-144 550.57,-144 670.57,-144 670.57,-144 676.57,-144 682.57,-150 682.57,-156 682.57,-156 682.57,-168 682.57,-168 682.57,-174 676.57,-180 670.57,-180"/>
<text text-anchor="middle" x="610.57" y="-165" font-family="sans" font-size="10.00">model_summaraner_add_info</text>
<text text-anchor="middle" x="610.57" y="-154" font-family="sans" font-size="10.00">type: val</text>
</g>
<!-- 6&#45;&gt;7 -->
<g id="edge20" class="edge">
<title>6&#45;&gt;7</title>
<path fill="none" stroke="grey" stroke-width="2" d="M484.93,-217.29C507.68,-207.46 537.26,-194.68 562,-183.99"/>
<polygon fill="grey" stroke="grey" stroke-width="2" points="563.43,-187.18 571.22,-180 560.66,-180.76 563.43,-187.18"/>
</g>
<!-- 8 -->
<g id="node9" class="node">
<title>8</title>
<path fill="none" stroke="#569ad8" stroke-width="2" d="M308.57,-180C308.57,-180 188.57,-180 188.57,-180 182.57,-180 176.57,-174 176.57,-168 176.57,-168 176.57,-156 176.57,-156 176.57,-150 182.57,-144 188.57,-144 188.57,-144 308.57,-144 308.57,-144 314.57,-144 320.57,-150 320.57,-156 320.57,-156 320.57,-168 320.57,-168 320.57,-174 314.57,-180 308.57,-180"/>
<text text-anchor="middle" x="248.57" y="-165" font-family="sans" font-size="10.00">model_summaraner_add_info</text>
<text text-anchor="middle" x="248.57" y="-154" font-family="sans" font-size="10.00">type: test</text>
</g>
<!-- 6&#45;&gt;8 -->
<g id="edge21" class="edge">
<title>6&#45;&gt;8</title>
<path fill="none" stroke="grey" stroke-width="2" d="M412.36,-220.32C383.05,-210.07 341.21,-195.42 307.16,-183.5"/>
<polygon fill="grey" stroke="grey" stroke-width="2" points="307.91,-180.06 297.32,-180.06 305.6,-186.67 307.91,-180.06"/>
</g>
<!-- 7&#45;&gt;0 -->
<g id="edge3" class="edge">
<title>7&#45;&gt;0</title>
<path fill="none" stroke="grey" stroke-width="2" d="M561.01,-143.85C544.88,-135.64 528.78,-124.01 519.57,-108 508.61,-88.93 514.7,-64.13 522.48,-45.55"/>
<polygon fill="grey" stroke="grey" stroke-width="2" points="525.78,-46.76 526.75,-36.21 519.41,-43.85 525.78,-46.76"/>
</g>
<!-- 8&#45;&gt;0 -->
<g id="edge4" class="edge">
<title>8&#45;&gt;0</title>
<path fill="none" stroke="grey" stroke-width="2" d="M260.5,-143.86C275.47,-123.64 303.05,-90.45 334.57,-72 386.78,-41.44 456.75,-28.2 499.15,-22.69"/>
<polygon fill="grey" stroke="grey" stroke-width="2" points="499.8,-26.13 509.3,-21.45 498.95,-19.18 499.8,-26.13"/>
</g>
<!-- 8&#45;&gt;12 -->
<g id="edge25" class="edge">
<title>8&#45;&gt;12</title>
<path fill="none" stroke="grey" stroke-width="2" d="M240.66,-143.7C237.02,-135.73 232.62,-126.1 228.58,-117.26"/>
<polygon fill="grey" stroke="grey" stroke-width="2" points="231.73,-115.74 224.39,-108.1 225.37,-118.65 231.73,-115.74"/>
</g>
<!-- 9&#45;&gt;0 -->
<g id="edge8" class="edge">
<title>9&#45;&gt;0</title>
<path fill="none" stroke="grey" stroke-width="2" d="M564.43,-71.7C560.17,-63.64 555.02,-53.89 550.31,-44.98"/>
<polygon fill="grey" stroke="grey" stroke-width="2" points="553.38,-43.31 545.61,-36.1 547.19,-46.58 553.38,-43.31"/>
</g>
<!-- 10&#45;&gt;0 -->
<g id="edge9" class="edge">
<title>10&#45;&gt;0</title>
<path fill="none" stroke="grey" stroke-width="2" d="M647.61,-71.88C625,-61.11 595.92,-47.26 573.18,-36.43"/>
<polygon fill="grey" stroke="grey" stroke-width="2" points="574.4,-33.14 563.87,-32 571.39,-39.46 574.4,-33.14"/>
</g>
<!-- 11&#45;&gt;0 -->
<g id="edge10" class="edge">
<title>11&#45;&gt;0</title>
<path fill="none" stroke="grey" stroke-width="2" d="M748.83,-75.11C745.72,-74.01 742.6,-72.96 739.57,-72 682.3,-53.76 614.52,-37.01 573.57,-27.41"/>
<polygon fill="grey" stroke="grey" stroke-width="2" points="574.29,-23.99 563.76,-25.13 572.71,-30.81 574.29,-23.99"/>
</g>
<!-- 12&#45;&gt;0 -->
<g id="edge11" class="edge">
<title>12&#45;&gt;0</title>
<path fill="none" stroke="grey" stroke-width="2" d="M282.1,-74.67C347.59,-60.34 445.96,-38.82 499.18,-27.18"/>
<polygon fill="grey" stroke="grey" stroke-width="2" points="500.18,-30.54 509.2,-24.99 498.68,-23.71 500.18,-30.54"/>
</g>
<!-- 13&#45;&gt;0 -->
<g id="edge12" class="edge">
<title>13&#45;&gt;0</title>
<path fill="none" stroke="grey" stroke-width="2" d="M851.4,-215.99C857.64,-183.36 865.87,-111.69 828.57,-72 794.43,-35.66 644.98,-23.98 574.12,-20.44"/>
<polygon fill="grey" stroke="grey" stroke-width="2" points="574,-16.93 563.85,-19.95 573.67,-23.92 574,-16.93"/>
</g>
<!-- 14&#45;&gt;0 -->
<g id="edge13" class="edge">
<title>14&#45;&gt;0</title>
<path fill="none" stroke="grey" stroke-width="2" d="M942.77,-215.78C932.41,-182.11 904.6,-107.74 852.57,-72 807.78,-41.23 647.28,-26.55 573.79,-21.33"/>
<polygon fill="grey" stroke="grey" stroke-width="2" points="573.82,-17.82 563.61,-20.63 573.34,-24.81 573.82,-17.82"/>
</g>
<!-- 15&#45;&gt;0 -->
<g id="edge14" class="edge">
<title>15&#45;&gt;0</title>
<path fill="none" stroke="grey" stroke-width="2" d="M1031.62,-215.86C1008.94,-181.99 953.3,-106.77 885.57,-72 831.62,-44.3 652.45,-27.75 573.96,-21.67"/>
<polygon fill="grey" stroke="grey" stroke-width="2" points="573.81,-18.15 563.58,-20.88 573.28,-25.13 573.81,-18.15"/>
</g>
</g>
</svg>
